<svg width="200" height="146" viewBox="0 0 200 146" fill="none" xmlns="http://www.w3.org/2000/svg">
<mask id="mask0_46_93" style="mask-type:luminance" maskUnits="userSpaceOnUse" x="0" y="0" width="200" height="146">
<path d="M200 0H0V146H200V0Z" fill="white"/>
<path d="M8.48006 54V7.28003H38.5601V16.24H17.9521V26.608H36.8961V35.568H18.0801V54H8.48006ZM47.4951 54V45.68H56.7751V15.6H47.4951V7.28003H75.6551V15.6H66.3751V45.68H75.6551V54H47.4951ZM93.9341 54L82.3501 7.28003H92.2701L98.7341 36.784C98.9471 37.808 99.2031 39.1093 99.5021 40.688C99.8431 42.2667 100.099 43.6107 100.27 44.72C100.441 43.6107 100.654 42.2667 100.91 40.688C101.166 39.1093 101.401 37.7867 101.614 36.72L107.886 7.28003H117.55L106.094 54H93.9341ZM124.245 54V7.28003H153.045V15.472H133.653V25.968H150.805V34.16H133.653V45.808H153.045V54H124.245ZM23.2001 138.64C19.9148 138.64 17.0561 138.085 14.6241 136.976C12.1921 135.867 10.3148 134.309 8.99206 132.304C7.66936 130.299 7.00806 127.931 7.00806 125.2H16.6081C16.6081 126.779 17.2054 128.037 18.4001 128.976C19.6374 129.872 21.3014 130.32 23.3921 130.32C25.3974 130.32 26.9548 129.872 28.0641 128.976C29.2161 128.08 29.7921 126.843 29.7921 125.264C29.7921 123.899 29.3654 122.725 28.5121 121.744C27.6588 120.763 26.4641 120.101 24.9281 119.76L20.1921 118.672C16.2241 117.733 13.1308 116.005 10.9121 113.488C8.73606 110.928 7.64806 107.813 7.64806 104.144C7.64806 101.413 8.26676 99.045 9.50406 97.04C10.7841 94.992 12.5761 93.413 14.8801 92.304C17.1841 91.195 19.9148 90.64 23.0721 90.64C27.8508 90.64 31.6268 91.835 34.4001 94.224C37.2161 96.571 38.6241 99.749 38.6241 103.76H29.0241C29.0241 102.267 28.4908 101.093 27.4241 100.24C26.4001 99.387 24.9068 98.96 22.9441 98.96C21.1094 98.96 19.7014 99.387 18.7201 100.24C17.7388 101.051 17.2481 102.224 17.2481 103.76C17.2481 105.125 17.6321 106.299 18.4001 107.28C19.2108 108.219 20.3414 108.859 21.7921 109.2L26.7841 110.352C30.9228 111.291 34.0588 112.997 36.1921 115.472C38.3254 117.904 39.3921 121.019 39.3921 124.816C39.3921 127.547 38.7094 129.957 37.3441 132.048C36.0214 134.139 34.1441 135.76 31.7121 136.912C29.3228 138.064 26.4854 138.64 23.2001 138.64ZM61.5751 138.64C58.4604 138.64 55.7511 138.064 53.4471 136.912C51.1431 135.717 49.3511 134.075 48.0711 131.984C46.8338 129.851 46.2151 127.376 46.2151 124.56V104.72C46.2151 101.904 46.8338 99.451 48.0711 97.36C49.3511 95.227 51.1431 93.584 53.4471 92.432C55.7511 91.237 58.4604 90.64 61.5751 90.64C64.7324 90.64 67.4418 91.237 69.7031 92.432C72.0071 93.584 73.7778 95.227 75.0151 97.36C76.2951 99.451 76.9351 101.904 76.9351 104.72V124.56C76.9351 127.376 76.2951 129.851 75.0151 131.984C73.7778 134.075 72.0071 135.717 69.7031 136.912C67.4418 138.064 64.7324 138.64 61.5751 138.64ZM61.5751 130.32C63.4951 130.32 64.9244 129.829 65.8631 128.848C66.8444 127.824 67.3351 126.395 67.3351 124.56V104.72C67.3351 102.843 66.8658 101.413 65.9271 100.432C64.9884 99.451 63.5378 98.96 61.5751 98.96C59.6124 98.96 58.1618 99.451 57.2231 100.432C56.2844 101.413 55.8151 102.843 55.8151 104.72V124.56C55.8151 126.395 56.2844 127.824 57.2231 128.848C58.2044 129.829 59.6551 130.32 61.5751 130.32ZM84.59 138V91.28H95.7901L107.886 127.44C107.758 125.861 107.609 124.048 107.438 122C107.267 119.909 107.118 117.84 106.99 115.792C106.905 113.701 106.862 111.931 106.862 110.48V91.28H115.31V138H104.11L92.1421 101.84C92.2701 103.205 92.3981 104.827 92.5261 106.704C92.6541 108.581 92.7608 110.48 92.8461 112.4C92.9741 114.32 93.0381 116.027 93.0381 117.52V138H84.59ZM138.581 138.64C135.466 138.64 132.736 138.064 130.389 136.912C128.042 135.717 126.208 134.075 124.885 131.984C123.605 129.851 122.965 127.376 122.965 124.56V104.72C122.965 101.861 123.605 99.387 124.885 97.296C126.208 95.205 128.042 93.584 130.389 92.432C132.736 91.237 135.466 90.64 138.581 90.64C141.738 90.64 144.469 91.237 146.773 92.432C149.12 93.584 150.933 95.205 152.213 97.296C153.536 99.387 154.197 101.861 154.197 104.72H144.597C144.597 102.843 144.064 101.413 142.997 100.432C141.973 99.451 140.501 98.96 138.581 98.96C136.661 98.96 135.168 99.451 134.101 100.432C133.077 101.413 132.565 102.843 132.565 104.72V124.56C132.565 126.395 133.077 127.824 134.101 128.848C135.168 129.829 136.661 130.32 138.581 130.32C140.501 130.32 141.973 129.829 142.997 128.848C144.064 127.824 144.597 126.395 144.597 124.56V120.528H137.685V112.4H154.197V124.56C154.197 127.376 153.536 129.851 152.213 131.984C150.933 134.075 149.12 135.717 146.773 136.912C144.469 138.064 141.738 138.64 138.581 138.64ZM176.7 138.64C173.415 138.64 170.556 138.085 168.124 136.976C165.692 135.867 163.815 134.309 162.492 132.304C161.169 130.299 160.508 127.931 160.508 125.2H170.108C170.108 126.779 170.705 128.037 171.9 128.976C173.137 129.872 174.801 130.32 176.892 130.32C178.897 130.32 180.455 129.872 181.564 128.976C182.716 128.08 183.292 126.843 183.292 125.264C183.292 123.899 182.865 122.725 182.012 121.744C181.159 120.763 179.964 120.101 178.428 119.76L173.692 118.672C169.724 117.733 166.631 116.005 164.412 113.488C162.236 110.928 161.148 107.813 161.148 104.144C161.148 101.413 161.767 99.045 163.004 97.04C164.284 94.992 166.076 93.413 168.38 92.304C170.684 91.195 173.415 90.64 176.572 90.64C181.351 90.64 185.127 91.835 187.9 94.224C190.716 96.571 192.124 99.749 192.124 103.76H182.524C182.524 102.267 181.991 101.093 180.924 100.24C179.9 99.387 178.407 98.96 176.444 98.96C174.609 98.96 173.201 99.387 172.22 100.24C171.239 101.051 170.748 102.224 170.748 103.76C170.748 105.125 171.132 106.299 171.9 107.28C172.711 108.219 173.841 108.859 175.292 109.2L180.284 110.352C184.423 111.291 187.559 112.997 189.692 115.472C191.825 117.904 192.892 121.019 192.892 124.816C192.892 127.547 192.209 129.957 190.844 132.048C189.521 134.139 187.644 135.76 185.212 136.912C182.823 138.064 179.985 138.64 176.7 138.64Z" fill="black"/>
</mask>
<g mask="url(#mask0_46_93)">
<path d="M8.48006 54H1.48006V61H8.48006V54ZM8.48006 7.28003V0.280029H1.48006V7.28003H8.48006ZM38.5601 7.28003H45.5601V0.280029H38.5601V7.28003ZM38.5601 16.24V23.24H45.5601V16.24H38.5601ZM17.9521 16.24V9.24003H10.9521V16.24H17.9521ZM17.9521 26.608H10.9521V33.608H17.9521V26.608ZM36.8961 26.608H43.8961V19.608H36.8961V26.608ZM36.8961 35.568V42.568H43.8961V35.568H36.8961ZM18.0801 35.568V28.568H11.0801V35.568H18.0801ZM18.0801 54V61H25.0801V54H18.0801ZM15.4801 54V7.28003H1.48006V54H15.4801ZM8.48006 14.28H38.5601V0.280029H8.48006V14.28ZM31.5601 7.28003V16.24H45.5601V7.28003H31.5601ZM38.5601 9.24003H17.9521V23.24H38.5601V9.24003ZM10.9521 16.24V26.608H24.9521V16.24H10.9521ZM17.9521 33.608H36.8961V19.608H17.9521V33.608ZM29.8961 26.608V35.568H43.8961V26.608H29.8961ZM36.8961 28.568H18.0801V42.568H36.8961V28.568ZM11.0801 35.568V54H25.0801V35.568H11.0801ZM18.0801 47H8.48006V61H18.0801V47ZM47.4951 54H40.4951V61H47.4951V54ZM47.4951 45.68V38.68H40.4951V45.68H47.4951ZM56.7751 45.68V52.68H63.7751V45.68H56.7751ZM56.7751 15.6H63.7751V8.60003H56.7751V15.6ZM47.4951 15.6H40.4951V22.6H47.4951V15.6ZM47.4951 7.28003V0.280029H40.4951V7.28003H47.4951ZM75.6551 7.28003H82.6551V0.280029H75.6551V7.28003ZM75.6551 15.6V22.6H82.6551V15.6H75.6551ZM66.3751 15.6V8.60003H59.3751V15.6H66.3751ZM66.3751 45.68H59.3751V52.68H66.3751V45.68ZM75.6551 45.68H82.6551V38.68H75.6551V45.68ZM75.6551 54V61H82.6551V54H75.6551ZM54.4951 54V45.68H40.4951V54H54.4951ZM47.4951 52.68H56.7751V38.68H47.4951V52.68ZM63.7751 45.68V15.6H49.7751V45.68H63.7751ZM56.7751 8.60003H47.4951V22.6H56.7751V8.60003ZM54.4951 15.6V7.28003H40.4951V15.6H54.4951ZM47.4951 14.28H75.6551V0.280029H47.4951V14.28ZM68.6551 7.28003V15.6H82.6551V7.28003H68.6551ZM75.6551 8.60003H66.3751V22.6H75.6551V8.60003ZM59.3751 15.6V45.68H73.3751V15.6H59.3751ZM66.3751 52.68H75.6551V38.68H66.3751V52.68ZM68.6551 45.68V54H82.6551V45.68H68.6551ZM75.6551 47H47.4951V61H75.6551V47ZM93.9341 54L87.1398 55.6846L88.4578 61H93.9341V54ZM82.3501 7.28003V0.280029H73.4025L75.5558 8.96463L82.3501 7.28003ZM92.2701 7.28003L99.1081 5.78193L97.9021 0.280029H92.2701V7.28003ZM98.7341 36.784L105.587 35.3563L105.58 35.3211L105.572 35.2859L98.7341 36.784ZM99.5021 40.688L92.6241 41.9892L92.641 42.0785L92.6602 42.1673L99.5021 40.688ZM100.27 44.72L93.3515 45.7844H107.189L100.27 44.72ZM101.614 36.72L94.7677 35.2614L94.7586 35.3043L94.75 35.3472L101.614 36.72ZM107.886 7.28003V0.280029H102.22L101.04 5.82143L107.886 7.28003ZM117.55 7.28003L124.349 8.94713L126.474 0.280029H117.55V7.28003ZM106.094 54V61H111.585L112.893 55.6671L106.094 54ZM100.728 52.3154L89.1444 5.59543L75.5558 8.96463L87.1398 55.6846L100.728 52.3154ZM82.3501 14.28H92.2701V0.280029H82.3501V14.28ZM85.4323 8.77813L91.8963 38.2821L105.572 35.2859L99.1081 5.78193L85.4323 8.77813ZM91.8812 38.2117C92.0825 39.1777 92.3297 40.4331 92.6241 41.9892L106.38 39.3868C106.077 37.7856 105.812 36.4383 105.587 35.3563L91.8812 38.2117ZM92.6602 42.1673C92.9835 43.6625 93.2092 44.8597 93.3515 45.7844L107.189 43.6556C106.99 42.3616 106.703 40.8708 106.344 39.2087L92.6602 42.1673ZM107.189 45.7844C107.355 44.6998 107.566 43.3756 107.82 41.8085L94.0004 39.5675C93.7425 41.1577 93.526 42.5216 93.3515 43.6556L107.189 45.7844ZM107.82 41.8085C108.068 40.279 108.287 39.0468 108.478 38.0928L94.75 35.3472C94.5142 36.5266 94.2643 37.9397 94.0004 39.5675L107.82 41.8085ZM108.46 38.1786L114.732 8.73863L101.04 5.82143L94.7677 35.2614L108.46 38.1786ZM107.886 14.28H117.55V0.280029H107.886V14.28ZM110.751 5.61293L99.2951 52.3329L112.893 55.6671L124.349 8.94713L110.751 5.61293ZM106.094 47H93.9341V61H106.094V47ZM124.245 54H117.245V61H124.245V54ZM124.245 7.28003V0.280029H117.245V7.28003H124.245ZM153.045 7.28003H160.045V0.280029H153.045V7.28003ZM153.045 15.472V22.472H160.045V15.472H153.045ZM133.653 15.472V8.47203H126.653V15.472H133.653ZM133.653 25.968H126.653V32.968H133.653V25.968ZM150.805 25.968H157.805V18.968H150.805V25.968ZM150.805 34.16V41.16H157.805V34.16H150.805ZM133.653 34.16V27.16H126.653V34.16H133.653ZM133.653 45.808H126.653V52.808H133.653V45.808ZM153.045 45.808H160.045V38.808H153.045V45.808ZM153.045 54V61H160.045V54H153.045ZM131.245 54V7.28003H117.245V54H131.245ZM124.245 14.28H153.045V0.280029H124.245V14.28ZM146.045 7.28003V15.472H160.045V7.28003H146.045ZM153.045 8.47203H133.653V22.472H153.045V8.47203ZM126.653 15.472V25.968H140.653V15.472H126.653ZM133.653 32.968H150.805V18.968H133.653V32.968ZM143.805 25.968V34.16H157.805V25.968H143.805ZM150.805 27.16H133.653V41.16H150.805V27.16ZM126.653 34.16V45.808H140.653V34.16H126.653ZM133.653 52.808H153.045V38.808H133.653V52.808ZM146.045 45.808V54H160.045V45.808H146.045ZM153.045 47H124.245V61H153.045V47ZM7.00806 125.2V118.2H0.00805664V125.2H7.00806ZM16.6081 125.2H23.6081V118.2H16.6081V125.2ZM18.4001 128.976L14.0753 134.48L14.1833 134.565L14.2945 134.646L18.4001 128.976ZM28.0641 128.976L23.7665 123.451L23.7158 123.49L23.6657 123.53L28.0641 128.976ZM24.9281 119.76L23.3608 126.582L23.3852 126.588L23.4096 126.593L24.9281 119.76ZM20.1921 118.672L18.5807 125.484L18.6027 125.489L18.6248 125.494L20.1921 118.672ZM10.9121 113.488L5.57848 118.022L5.61912 118.069L5.6606 118.116L10.9121 113.488ZM9.50406 97.04L3.56807 93.33L3.55739 93.347L3.54681 93.364L9.50406 97.04ZM34.4001 94.224L29.8311 99.527L29.8747 99.565L29.9188 99.602L34.4001 94.224ZM38.6241 103.76V110.76H45.6241V103.76H38.6241ZM29.0241 103.76H22.0241V110.76H29.0241V103.76ZM27.4241 100.24L22.9428 105.618L22.9966 105.662L23.0512 105.706L27.4241 100.24ZM18.7201 100.24L23.1783 105.637L23.2465 105.58L23.3133 105.522L18.7201 100.24ZM18.4001 107.28L12.8876 111.594L12.9918 111.727L13.1023 111.855L18.4001 107.28ZM21.7921 109.2L20.1888 116.014L20.2034 116.017L20.2181 116.021L21.7921 109.2ZM26.7841 110.352L25.2101 117.173L25.2229 117.176L25.2358 117.179L26.7841 110.352ZM36.1921 115.472L30.8902 120.043L30.9099 120.065L30.9298 120.088L36.1921 115.472ZM37.3441 132.048L31.4832 128.22L31.4556 128.263L31.4286 128.306L37.3441 132.048ZM31.7121 136.912L28.7155 130.586L28.6937 130.596L28.672 130.607L31.7121 136.912ZM23.2001 131.64C20.693 131.64 18.8651 131.217 17.5291 130.607L11.7191 143.345C15.2471 144.954 19.1366 145.64 23.2001 145.64V131.64ZM17.5291 130.607C16.1542 129.98 15.3545 129.237 14.8355 128.45L3.14865 136.158C5.27501 139.382 8.22996 141.753 11.7191 143.345L17.5291 130.607ZM14.8355 128.45C14.367 127.739 14.0081 126.753 14.0081 125.2H0.00805664C0.00805664 129.108 0.971837 132.858 3.14865 136.158L14.8355 128.45ZM7.00806 132.2H16.6081V118.2H7.00806V132.2ZM9.60806 125.2C9.60806 128.829 11.1164 132.155 14.0753 134.48L22.7249 123.472C22.9001 123.609 23.1738 123.892 23.3801 124.327C23.5824 124.753 23.6081 125.09 23.6081 125.2H9.60806ZM14.2945 134.646C17.0952 136.674 20.3594 137.32 23.3921 137.32V123.32C22.2435 123.32 22.1797 123.07 22.5057 123.306L14.2945 134.646ZM23.3921 137.32C26.3588 137.32 29.6879 136.663 32.4625 134.422L23.6657 123.53C23.7923 123.428 23.9084 123.358 23.9976 123.313C24.0851 123.269 24.1344 123.255 24.1289 123.257C24.1077 123.263 23.8886 123.32 23.3921 123.32V137.32ZM32.3617 134.501C35.3731 132.159 36.7921 128.799 36.7921 125.264H22.7921C22.7921 125.192 22.8088 124.863 23.014 124.422C23.2273 123.964 23.5276 123.636 23.7665 123.451L32.3617 134.501ZM36.7921 125.264C36.7921 122.302 35.8142 119.474 33.7943 117.151L23.2299 126.337C23.1169 126.207 22.9858 126.006 22.8935 125.752C22.8031 125.504 22.7921 125.321 22.7921 125.264H36.7921ZM33.7943 117.151C31.7663 114.818 29.1303 113.523 26.4466 112.927L23.4096 126.593C23.6204 126.64 23.6566 126.675 23.5859 126.636C23.5504 126.617 23.4949 126.582 23.4283 126.529C23.3613 126.475 23.2934 126.41 23.2299 126.337L33.7943 117.151ZM26.4954 112.938L21.7594 111.85L18.6248 125.494L23.3608 126.582L26.4954 112.938ZM21.8035 111.86C18.9369 111.182 17.2338 110.074 16.1636 108.86L5.6606 118.116C9.02766 121.937 13.5113 124.285 18.5807 125.484L21.8035 111.86ZM16.2457 108.954C15.2474 107.78 14.6481 106.317 14.6481 104.144H0.648057C0.648057 109.31 2.2248 114.076 5.57848 118.022L16.2457 108.954ZM14.6481 104.144C14.6481 102.502 15.0081 101.45 15.4614 100.716L3.54681 93.364C1.52535 96.64 0.648057 100.325 0.648057 104.144H14.6481ZM15.4401 100.75C15.9766 99.892 16.7319 99.182 17.9168 98.611L11.8434 85.997C8.42026 87.6451 5.59152 90.092 3.56807 93.33L15.4401 100.75ZM17.9168 98.611C19.0776 98.052 20.7248 97.64 23.0721 97.64V83.64C19.1048 83.64 15.2906 84.3372 11.8434 85.997L17.9168 98.611ZM23.0721 97.64C26.6953 97.64 28.6745 98.531 29.8311 99.527L38.9691 88.9207C34.5791 85.1386 29.0062 83.64 23.0721 83.64V97.64ZM29.9188 99.602C30.9759 100.482 31.6241 101.605 31.6241 103.76H45.6241C45.6241 97.894 43.4563 92.659 38.8814 88.8465L29.9188 99.602ZM38.6241 96.76H29.0241V110.76H38.6241V96.76ZM36.0241 103.76C36.0241 100.367 34.6933 97.091 31.797 94.774L23.0512 105.706C22.7781 105.488 22.4674 105.132 22.2515 104.657C22.0441 104.2 22.0241 103.855 22.0241 103.76H36.0241ZM31.9054 94.862C29.1473 92.564 25.7939 91.96 22.9441 91.96V105.96C23.1835 105.96 23.3561 105.973 23.4704 105.987C23.5847 106.001 23.6276 106.015 23.6131 106.011C23.5974 106.006 23.518 105.982 23.3954 105.92C23.2705 105.856 23.1124 105.759 22.9428 105.618L31.9054 94.862ZM22.9441 91.96C20.1089 91.96 16.8195 92.616 14.1269 94.958L23.3133 105.522C22.9671 105.823 22.6588 105.944 22.5422 105.979C22.4489 106.007 22.5524 105.96 22.9441 105.96V91.96ZM14.2619 94.843C11.3367 97.26 10.2481 100.612 10.2481 103.76H24.2481C24.2481 103.731 24.2526 104.002 24.0742 104.429C23.881 104.89 23.5623 105.32 23.1783 105.637L14.2619 94.843ZM10.2481 103.76C10.2481 106.53 11.0622 109.262 12.8876 111.594L23.9126 102.966C24.0252 103.11 24.1254 103.293 24.1889 103.487C24.2499 103.673 24.2481 103.781 24.2481 103.76H10.2481ZM13.1023 111.855C15.0594 114.121 17.598 115.404 20.1888 116.014L23.3954 102.386C23.2232 102.346 23.2144 102.321 23.3043 102.372C23.4043 102.429 23.5536 102.538 23.6979 102.705L13.1023 111.855ZM20.2181 116.021L25.2101 117.173L28.3581 103.531L23.3661 102.379L20.2181 116.021ZM25.2358 117.179C28.3508 117.885 29.9912 119 30.8902 120.043L41.494 110.901C38.1263 106.995 33.4948 104.696 28.3324 103.525L25.2358 117.179ZM30.9298 120.088C31.7531 121.027 32.3921 122.405 32.3921 124.816H46.3921C46.3921 119.632 44.8978 114.781 41.4544 110.856L30.9298 120.088ZM32.3921 124.816C32.3921 126.32 32.036 127.374 31.4832 128.22L43.205 135.876C45.3829 132.541 46.3921 128.774 46.3921 124.816H32.3921ZM31.4286 128.306C30.8766 129.178 30.0588 129.95 28.7155 130.586L34.7087 143.238C38.2294 141.57 41.1663 139.099 43.2597 135.79L31.4286 128.306ZM28.672 130.607C27.4297 131.206 25.6782 131.64 23.2001 131.64V145.64C27.2927 145.64 31.2159 144.922 34.7522 143.217L28.672 130.607ZM53.4471 136.912L50.2249 143.126L50.2706 143.15L50.3166 143.173L53.4471 136.912ZM48.0711 131.984L42.0159 135.496L42.0577 135.568L42.1011 135.639L48.0711 131.984ZM48.0711 97.36L42.0686 93.759L42.0578 93.777L42.0471 93.795L48.0711 97.36ZM53.4471 92.432L56.5776 98.693L56.6236 98.67L56.6693 98.646L53.4471 92.432ZM69.7031 92.432L66.4333 98.621L66.5025 98.658L66.5726 98.693L69.7031 92.432ZM75.0151 97.36L68.9599 100.872L69.0017 100.944L69.0451 101.015L75.0151 97.36ZM75.0151 131.984L69.0127 128.383L69.0018 128.401L68.9911 128.419L75.0151 131.984ZM69.7031 136.912L72.8806 143.149L72.903 143.138L72.9253 143.126L69.7031 136.912ZM65.8631 128.848L60.8092 124.005L60.8046 124.009L65.8631 128.848ZM57.2231 128.848L52.063 133.578L52.1658 133.69L52.2734 133.798L57.2231 128.848ZM61.5751 131.64C59.3227 131.64 57.727 131.226 56.5776 130.651L50.3166 143.173C53.7752 144.902 57.5981 145.64 61.5751 145.64V131.64ZM56.6693 130.698C55.4279 130.054 54.6157 129.268 54.0411 128.329L42.1011 135.639C44.0865 138.882 46.8583 141.381 50.2249 143.126L56.6693 130.698ZM54.1263 128.472C53.5914 127.55 53.2151 126.32 53.2151 124.56H39.2151C39.2151 128.432 40.0762 132.152 42.0159 135.496L54.1263 128.472ZM53.2151 124.56V104.72H39.2151V124.56H53.2151ZM53.2151 104.72C53.2151 102.956 53.5925 101.775 54.0951 100.925L42.0471 93.795C40.0751 97.127 39.2151 100.852 39.2151 104.72H53.2151ZM54.0736 100.961C54.6435 100.012 55.4199 99.272 56.5776 98.693L50.3166 86.171C46.8663 87.8962 44.0587 90.442 42.0686 93.759L54.0736 100.961ZM56.6693 98.646C57.7972 98.061 59.3592 97.64 61.5751 97.64V83.64C57.5616 83.64 53.705 84.4132 50.2249 86.2177L56.6693 98.646ZM61.5751 97.64C63.856 97.64 65.3892 98.07 66.4333 98.621L72.9729 86.2426C69.4944 84.4049 65.6089 83.64 61.5751 83.64V97.64ZM66.5726 98.693C67.7116 99.263 68.4397 99.975 68.9599 100.872L81.0703 93.848C79.1158 90.478 76.3026 87.9055 72.8336 86.171L66.5726 98.693ZM69.0451 101.015C69.5562 101.85 69.9351 102.998 69.9351 104.72H83.9351C83.9351 100.81 83.034 97.051 80.9851 93.705L69.0451 101.015ZM69.9351 104.72V124.56H83.9351V104.72H69.9351ZM69.9351 124.56C69.9351 126.278 69.5572 127.475 69.0127 128.383L81.0176 135.585C83.033 132.226 83.9351 128.474 83.9351 124.56H69.9351ZM68.9911 128.419C68.4673 129.304 67.7043 130.063 66.4809 130.698L72.9253 143.126C76.3099 141.371 79.0883 138.846 81.0391 135.549L68.9911 128.419ZM66.5256 130.675C65.4595 131.218 63.8921 131.64 61.5751 131.64V145.64C65.5728 145.64 69.424 144.91 72.8806 143.149L66.5256 130.675ZM61.5751 137.32C64.6005 137.32 68.1937 136.538 70.9216 133.687L60.8046 124.009C61.1921 123.604 61.5925 123.407 61.8143 123.331C61.9984 123.268 61.961 123.32 61.5751 123.32V137.32ZM70.917 133.691C73.4818 131.015 74.3351 127.65 74.3351 124.56H60.3351C60.3351 124.864 60.2934 124.889 60.3463 124.735C60.3738 124.655 60.4229 124.539 60.5047 124.403C60.5872 124.265 60.6899 124.129 60.8092 124.005L70.917 133.691ZM74.3351 124.56V104.72H60.3351V124.56H74.3351ZM74.3351 104.72C74.3351 101.738 73.5812 98.307 70.9855 95.593L60.8686 105.271C60.7141 105.109 60.5912 104.941 60.4986 104.782C60.4072 104.626 60.3573 104.499 60.3325 104.424C60.2865 104.284 60.3351 104.347 60.3351 104.72H74.3351ZM70.9855 95.593C68.2315 92.714 64.5893 91.96 61.5751 91.96V105.96C61.9976 105.96 62.0602 106.016 61.8923 105.959C61.6864 105.889 61.2745 105.695 60.8686 105.271L70.9855 95.593ZM61.5751 91.96C58.5609 91.96 54.9186 92.714 52.1646 95.593L62.2816 105.271C61.8757 105.695 61.4638 105.889 61.2579 105.959C61.09 106.016 61.1526 105.96 61.5751 105.96V91.96ZM52.1646 95.593C49.5689 98.307 48.8151 101.738 48.8151 104.72H62.8151C62.8151 104.347 62.8637 104.284 62.8177 104.424C62.7929 104.499 62.743 104.626 62.6516 104.782C62.559 104.941 62.4361 105.109 62.2816 105.271L52.1646 95.593ZM48.8151 104.72V124.56H62.8151V104.72H48.8151ZM48.8151 124.56C48.8151 127.571 49.6027 130.894 52.063 133.578L62.3832 124.118C62.5035 124.249 62.6021 124.387 62.6783 124.52C62.7537 124.651 62.796 124.758 62.8177 124.824C62.8589 124.949 62.8151 124.892 62.8151 124.56H48.8151ZM52.2734 133.798C55.0043 136.529 58.5243 137.32 61.5751 137.32V123.32C61.1928 123.32 61.1361 123.269 61.2899 123.321C61.3729 123.349 61.5077 123.404 61.6717 123.503C61.8379 123.604 62.0103 123.736 62.1728 123.898L52.2734 133.798ZM84.59 138H77.59V145H84.59V138ZM84.59 91.28V84.28H77.59V91.28H84.59ZM95.7901 91.28L102.428 89.059L100.83 84.28H95.7901V91.28ZM107.886 127.44L101.248 129.661L114.863 126.874L107.886 127.44ZM107.438 122L100.461 122.57L100.462 122.581L107.438 122ZM106.99 115.792L99.9961 116.077L99.9991 116.153L100.004 116.229L106.99 115.792ZM106.862 91.28V84.28H99.8621V91.28H106.862ZM115.31 91.28H122.31V84.28H115.31V91.28ZM115.31 138V145H122.31V138H115.31ZM104.11 138L97.465 140.199L99.0531 145H104.11V138ZM92.1421 101.84L98.7871 99.641L85.1727 102.493L92.1421 101.84ZM92.8461 112.4L85.853 112.711L85.8564 112.788L85.8616 112.866L92.8461 112.4ZM93.0381 138V145H100.038V138H93.0381ZM91.59 138V91.28H77.59V138H91.59ZM84.59 98.28H95.7901V84.28H84.59V98.28ZM89.1517 93.501L101.248 129.661L114.524 125.219L102.428 89.059L89.1517 93.501ZM114.863 126.874C114.735 125.289 114.585 123.47 114.414 121.419L100.462 122.581C100.633 124.626 100.781 126.434 100.909 128.006L114.863 126.874ZM114.415 121.43C114.248 119.383 114.102 117.358 113.976 115.355L100.004 116.229C100.134 118.322 100.287 120.436 100.461 122.57L114.415 121.43ZM113.984 115.507C113.901 113.473 113.862 111.804 113.862 110.48H99.8621C99.8621 112.057 99.9081 113.929 99.9961 116.077L113.984 115.507ZM113.862 110.48V91.28H99.8621V110.48H113.862ZM106.862 98.28H115.31V84.28H106.862V98.28ZM108.31 91.28V138H122.31V91.28H108.31ZM115.31 131H104.11V145H115.31V131ZM110.755 135.801L98.7871 99.641L85.4966 104.039L97.465 140.199L110.755 135.801ZM85.1727 102.493C85.2935 103.783 85.417 105.342 85.5423 107.18L99.5101 106.228C99.3791 104.311 99.2471 102.628 99.1111 101.187L85.1727 102.493ZM85.5423 107.18C85.6665 109.001 85.7701 110.845 85.853 112.711L99.8391 112.089C99.7511 110.115 99.6421 108.161 99.5101 106.228L85.5423 107.18ZM85.8616 112.866C85.982 114.672 86.0381 116.219 86.0381 117.52H100.038C100.038 115.835 99.9661 113.968 99.8301 111.934L85.8616 112.866ZM86.0381 117.52V138H100.038V117.52H86.0381ZM93.0381 131H84.59V145H93.0381V131ZM130.389 136.912L127.213 143.15L127.259 143.173L127.304 143.196L130.389 136.912ZM124.885 131.984L118.883 135.585L118.925 135.656L118.969 135.726L124.885 131.984ZM124.885 97.296L118.969 93.554L118.942 93.597L118.915 93.641L124.885 97.296ZM130.389 92.432L133.474 98.716L133.519 98.693L133.565 98.67L130.389 92.432ZM146.773 92.432L143.551 98.646L143.619 98.682L143.688 98.716L146.773 92.432ZM152.213 97.296L146.243 100.951L146.27 100.995L146.297 101.038L152.213 97.296ZM154.197 104.72V111.72H161.197V104.72H154.197ZM144.597 104.72H137.597V111.72H144.597V104.72ZM142.997 100.432L138.154 105.486L138.205 105.535L138.258 105.584L142.997 100.432ZM134.101 100.432L129.362 95.28L129.309 95.329L129.258 95.378L134.101 100.432ZM134.101 128.848L129.151 133.798L129.254 133.901L129.362 134L134.101 128.848ZM142.997 128.848L147.84 133.902L147.845 133.898L142.997 128.848ZM144.597 120.528H151.597V113.528H144.597V120.528ZM137.685 120.528H130.685V127.528H137.685V120.528ZM137.685 112.4V105.4H130.685V112.4H137.685ZM154.197 112.4H161.197V105.4H154.197V112.4ZM152.213 131.984L146.264 128.295L146.253 128.312L146.243 128.329L152.213 131.984ZM146.773 136.912L149.903 143.173L149.926 143.162L149.949 143.15L146.773 136.912ZM138.581 131.64C136.333 131.64 134.694 131.227 133.474 130.628L127.304 143.196C130.778 144.901 134.6 145.64 138.581 145.64V131.64ZM133.565 130.674C132.264 130.012 131.407 129.2 130.801 128.242L118.969 135.726C121.008 138.949 123.821 141.423 127.213 143.15L133.565 130.674ZM130.887 128.383C130.343 127.475 129.965 126.278 129.965 124.56H115.965C115.965 128.474 116.867 132.226 118.883 135.585L130.887 128.383ZM129.965 124.56V104.72H115.965V124.56H129.965ZM129.965 104.72C129.965 102.934 130.354 101.77 130.855 100.951L118.915 93.641C116.856 97.004 115.965 100.789 115.965 104.72H129.965ZM130.801 101.038C131.392 100.103 132.218 99.332 133.474 98.716L127.304 86.1483C123.866 87.8361 121.023 90.308 118.969 93.554L130.801 101.038ZM133.565 98.67C134.763 98.06 136.369 97.64 138.581 97.64V83.64C134.563 83.64 130.708 84.4146 127.213 86.1939L133.565 98.67ZM138.581 97.64C140.857 97.64 142.436 98.068 143.551 98.646L149.995 86.2177C146.502 84.4066 142.62 83.64 138.581 83.64V97.64ZM143.688 98.716C144.926 99.323 145.703 100.069 146.243 100.951L158.183 93.641C156.163 90.342 153.313 87.8447 149.858 86.1483L143.688 98.716ZM146.297 101.038C146.807 101.844 147.197 102.976 147.197 104.72H161.197C161.197 100.747 160.264 96.929 158.129 93.554L146.297 101.038ZM154.197 97.72H144.597V111.72H154.197V97.72ZM151.597 104.72C151.597 101.496 150.639 97.951 147.736 95.28L138.258 105.584C138.111 105.448 137.977 105.292 137.865 105.123C137.753 104.955 137.682 104.803 137.639 104.687C137.555 104.462 137.597 104.431 137.597 104.72H151.597ZM147.84 95.378C145.108 92.76 141.654 91.96 138.581 91.96V105.96C138.96 105.96 139.035 106.01 138.911 105.969C138.845 105.946 138.731 105.901 138.589 105.818C138.446 105.733 138.296 105.622 138.154 105.486L147.84 95.378ZM138.581 91.96C135.488 91.96 132.093 92.767 129.362 95.28L138.84 105.584C138.718 105.696 138.591 105.787 138.47 105.856C138.351 105.925 138.257 105.961 138.206 105.978C138.111 106.009 138.205 105.96 138.581 105.96V91.96ZM129.258 95.378C126.452 98.067 125.565 101.578 125.565 104.72H139.565C139.565 104.403 139.61 104.403 139.539 104.601C139.502 104.704 139.438 104.848 139.332 105.014C139.226 105.18 139.095 105.341 138.944 105.486L129.258 95.378ZM125.565 104.72V124.56H139.565V104.72H125.565ZM125.565 124.56C125.565 127.73 126.487 131.134 129.151 133.798L139.051 123.898C139.168 124.015 139.274 124.148 139.362 124.289C139.45 124.429 139.506 124.554 139.539 124.647C139.604 124.829 139.565 124.835 139.565 124.56H125.565ZM129.362 134C132.093 136.513 135.488 137.32 138.581 137.32V123.32C138.205 123.32 138.111 123.271 138.206 123.302C138.257 123.319 138.351 123.355 138.47 123.424C138.591 123.493 138.718 123.584 138.84 123.696L129.362 134ZM138.581 137.32C141.654 137.32 145.108 136.52 147.84 133.902L138.154 123.794C138.296 123.658 138.446 123.547 138.589 123.462C138.731 123.379 138.845 123.333 138.911 123.311C139.035 123.27 138.96 123.32 138.581 123.32V137.32ZM147.845 133.898C150.603 131.25 151.597 127.812 151.597 124.56H137.597C137.597 124.806 137.561 124.77 137.639 124.561C137.678 124.455 137.741 124.323 137.834 124.18C137.927 124.037 138.036 123.907 138.149 123.798L147.845 133.898ZM151.597 124.56V120.528H137.597V124.56H151.597ZM144.597 113.528H137.685V127.528H144.597V113.528ZM144.685 120.528V112.4H130.685V120.528H144.685ZM137.685 119.4H154.197V105.4H137.685V119.4ZM147.197 112.4V124.56H161.197V112.4H147.197ZM147.197 124.56C147.197 126.236 146.818 127.401 146.264 128.295L158.162 135.673C160.253 132.3 161.197 128.516 161.197 124.56H147.197ZM146.243 128.329C145.688 129.235 144.881 130.02 143.597 130.674L149.949 143.15C153.359 141.414 156.178 138.914 158.183 135.639L146.243 128.329ZM143.643 130.651C142.505 131.22 140.893 131.64 138.581 131.64V145.64C142.584 145.64 146.433 144.908 149.903 143.173L143.643 130.651ZM160.508 125.2V118.2H153.508V125.2H160.508ZM170.108 125.2H177.108V118.2H170.108V125.2ZM171.9 128.976L167.575 134.48L167.683 134.565L167.794 134.646L171.9 128.976ZM181.564 128.976L177.266 123.451L177.216 123.49L177.166 123.53L181.564 128.976ZM178.428 119.76L176.861 126.582L176.885 126.588L176.909 126.593L178.428 119.76ZM173.692 118.672L172.081 125.484L172.103 125.489L172.125 125.494L173.692 118.672ZM164.412 113.488L159.078 118.022L159.119 118.069L159.161 118.116L164.412 113.488ZM163.004 97.04L157.068 93.33L157.057 93.347L157.047 93.364L163.004 97.04ZM187.9 94.224L183.331 99.527L183.375 99.565L183.419 99.602L187.9 94.224ZM192.124 103.76V110.76H199.124V103.76H192.124ZM182.524 103.76H175.524V110.76H182.524V103.76ZM180.924 100.24L176.443 105.618L176.496 105.662L176.551 105.706L180.924 100.24ZM172.22 100.24L176.678 105.637L176.746 105.58L176.813 105.522L172.22 100.24ZM171.9 107.28L166.387 111.594L166.492 111.727L166.602 111.855L171.9 107.28ZM175.292 109.2L173.689 116.014L173.703 116.017L173.718 116.021L175.292 109.2ZM180.284 110.352L178.71 117.173L178.723 117.176L178.736 117.179L180.284 110.352ZM189.692 115.472L184.39 120.043L184.41 120.065L184.43 120.088L189.692 115.472ZM190.844 132.048L184.983 128.22L184.955 128.263L184.928 128.306L190.844 132.048ZM185.212 136.912L182.215 130.586L182.194 130.596L182.172 130.607L185.212 136.912ZM176.7 131.64C174.193 131.64 172.365 131.217 171.029 130.607L165.219 143.345C168.747 144.954 172.636 145.64 176.7 145.64V131.64ZM171.029 130.607C169.654 129.98 168.854 129.237 168.335 128.45L156.649 136.158C158.775 139.382 161.73 141.753 165.219 143.345L171.029 130.607ZM168.335 128.45C167.867 127.739 167.508 126.753 167.508 125.2H153.508C153.508 129.108 154.472 132.858 156.649 136.158L168.335 128.45ZM160.508 132.2H170.108V118.2H160.508V132.2ZM163.108 125.2C163.108 128.829 164.616 132.155 167.575 134.48L176.225 123.472C176.4 123.609 176.674 123.892 176.88 124.327C177.082 124.753 177.108 125.09 177.108 125.2H163.108ZM167.794 134.646C170.595 136.674 173.859 137.32 176.892 137.32V123.32C175.743 123.32 175.68 123.07 176.006 123.306L167.794 134.646ZM176.892 137.32C179.859 137.32 183.188 136.663 185.962 134.422L177.166 123.53C177.292 123.428 177.408 123.358 177.498 123.313C177.585 123.269 177.634 123.255 177.629 123.257C177.608 123.263 177.389 123.32 176.892 123.32V137.32ZM185.862 134.501C188.873 132.159 190.292 128.799 190.292 125.264H176.292C176.292 125.192 176.309 124.863 176.514 124.422C176.727 123.964 177.028 123.636 177.266 123.451L185.862 134.501ZM190.292 125.264C190.292 122.302 189.314 119.474 187.294 117.151L176.73 126.337C176.617 126.207 176.486 126.006 176.393 125.752C176.303 125.504 176.292 125.321 176.292 125.264H190.292ZM187.294 117.151C185.266 114.818 182.63 113.523 179.947 112.927L176.909 126.593C177.12 126.64 177.157 126.675 177.086 126.636C177.05 126.617 176.995 126.582 176.928 126.529C176.861 126.475 176.793 126.41 176.73 126.337L187.294 117.151ZM179.995 112.938L175.259 111.85L172.125 125.494L176.861 126.582L179.995 112.938ZM175.303 111.86C172.437 111.182 170.734 110.074 169.663 108.86L159.161 118.116C162.528 121.937 167.011 124.285 172.081 125.484L175.303 111.86ZM169.746 108.954C168.747 107.78 168.148 106.317 168.148 104.144H154.148C154.148 109.31 155.725 114.076 159.078 118.022L169.746 108.954ZM168.148 104.144C168.148 102.502 168.508 101.45 168.961 100.716L157.047 93.364C155.025 96.64 154.148 100.325 154.148 104.144H168.148ZM168.94 100.75C169.477 99.892 170.232 99.182 171.417 98.611L165.343 85.997C161.92 87.6451 159.091 90.092 157.068 93.33L168.94 100.75ZM171.417 98.611C172.578 98.052 174.225 97.64 176.572 97.64V83.64C172.605 83.64 168.79 84.3372 165.343 85.997L171.417 98.611ZM176.572 97.64C180.195 97.64 182.174 98.531 183.331 99.527L192.469 88.9207C188.079 85.1386 182.506 83.64 176.572 83.64V97.64ZM183.419 99.602C184.476 100.482 185.124 101.605 185.124 103.76H199.124C199.124 97.894 196.956 92.659 192.381 88.8465L183.419 99.602ZM192.124 96.76H182.524V110.76H192.124V96.76ZM189.524 103.76C189.524 100.367 188.193 97.091 185.297 94.774L176.551 105.706C176.278 105.488 175.967 105.132 175.751 104.657C175.544 104.2 175.524 103.855 175.524 103.76H189.524ZM185.405 94.862C182.647 92.564 179.294 91.96 176.444 91.96V105.96C176.683 105.96 176.856 105.973 176.97 105.987C177.085 106.001 177.127 106.015 177.113 106.011C177.097 106.006 177.018 105.982 176.895 105.92C176.77 105.856 176.612 105.759 176.443 105.618L185.405 94.862ZM176.444 91.96C173.609 91.96 170.319 92.616 167.627 94.958L176.813 105.522C176.467 105.823 176.159 105.944 176.042 105.979C175.949 106.007 176.052 105.96 176.444 105.96V91.96ZM167.762 94.843C164.837 97.26 163.748 100.612 163.748 103.76H177.748C177.748 103.731 177.753 104.002 177.574 104.429C177.381 104.89 177.062 105.32 176.678 105.637L167.762 94.843ZM163.748 103.76C163.748 106.53 164.562 109.262 166.387 111.594L177.413 102.966C177.525 103.11 177.625 103.293 177.689 103.487C177.75 103.673 177.748 103.781 177.748 103.76H163.748ZM166.602 111.855C168.559 114.121 171.098 115.404 173.689 116.014L176.895 102.386C176.723 102.346 176.714 102.321 176.804 102.372C176.904 102.429 177.053 102.538 177.198 102.705L166.602 111.855ZM173.718 116.021L178.71 117.173L181.858 103.531L176.866 102.379L173.718 116.021ZM178.736 117.179C181.851 117.885 183.491 119 184.39 120.043L194.994 110.901C191.626 106.995 186.995 104.696 181.832 103.525L178.736 117.179ZM184.43 120.088C185.253 121.027 185.892 122.405 185.892 124.816H199.892C199.892 119.632 198.398 114.781 194.954 110.856L184.43 120.088ZM185.892 124.816C185.892 126.32 185.536 127.374 184.983 128.22L196.705 135.876C198.883 132.541 199.892 128.774 199.892 124.816H185.892ZM184.928 128.306C184.376 129.178 183.559 129.95 182.215 130.586L188.209 143.238C191.729 141.57 194.666 139.099 196.76 135.79L184.928 128.306ZM182.172 130.607C180.93 131.206 179.178 131.64 176.7 131.64V145.64C180.793 145.64 184.716 144.922 188.252 143.217L182.172 130.607Z" fill="#C6F277"/>
</g>
</svg>
