<svg width="325" height="250" viewBox="0 0 325 250" fill="none" xmlns="http://www.w3.org/2000/svg">
<path d="M100.529 209.802C86.6626 209.802 74.5293 207.245 64.1293 202.132C53.7293 197.019 45.7993 189.825 40.3393 180.552C34.8793 171.279 32.5826 160.445 33.4493 148.052H72.4493C72.8826 153.339 74.2693 157.802 76.6093 161.442C78.9493 164.995 82.1993 167.682 86.3593 169.502C90.5193 171.235 95.4593 172.102 101.179 172.102C107.853 172.102 113.356 170.932 117.689 168.592C122.109 166.165 125.403 162.699 127.569 158.192C129.736 153.599 130.819 148.052 130.819 141.552C130.819 131.325 128.263 124.175 123.149 120.102C118.036 115.942 111.449 113.862 103.389 113.862C94.8093 113.862 88.2226 115.509 83.6293 118.802C79.1226 122.009 75.3093 125.215 72.1893 128.422L36.9593 117.762L49.1793 18.052H160.979V55.362H81.5493L69.5893 111.132C72.8826 102.205 78.1693 95.142 85.4493 89.942C92.816 84.6554 103.476 82.012 117.429 82.012C124.103 82.012 130.689 83.0087 137.189 85.002C143.776 86.9954 149.756 90.2454 155.129 94.752C160.503 99.2587 164.793 105.239 167.999 112.692C171.206 120.145 172.809 129.332 172.809 140.252C172.809 154.379 169.819 166.685 163.839 177.172C157.859 187.572 149.453 195.632 138.619 201.352C127.786 206.985 115.089 209.802 100.529 209.802Z" fill="#FBABFD"/>
<path d="M139.921 218.017C126.054 218.017 113.921 215.46 103.521 210.347C93.1207 205.233 85.1907 198.04 79.7307 188.767C74.2707 179.493 71.974 168.66 72.8407 156.267H111.841C112.274 161.553 113.661 166.017 116.001 169.657C118.341 173.21 121.591 175.897 125.751 177.717C129.911 179.45 134.851 180.317 140.571 180.317C147.244 180.317 152.747 179.147 157.081 176.807C161.501 174.38 164.794 170.913 166.961 166.407C169.127 161.813 170.211 156.267 170.211 149.767C170.211 139.54 167.654 132.39 162.541 128.317C157.427 124.157 150.841 122.077 142.781 122.077C134.201 122.077 127.614 123.723 123.021 127.017C118.514 130.223 114.701 133.43 111.581 136.637L76.3507 125.977L88.5707 26.2666H200.371V63.5766H120.941L108.981 119.347C112.274 110.42 117.561 103.357 124.841 98.1566C132.207 92.8699 142.867 90.2266 156.821 90.2266C163.494 90.2266 170.081 91.2233 176.581 93.2166C183.167 95.2099 189.147 98.4599 194.521 102.967C199.894 107.473 204.184 113.453 207.391 120.907C210.597 128.36 212.201 137.547 212.201 148.467C212.201 162.593 209.211 174.9 203.231 185.387C197.251 195.787 188.844 203.847 178.011 209.567C167.177 215.2 154.481 218.017 139.921 218.017Z" fill="#FDF6EC"/>
<path d="M179.312 226.231C165.445 226.231 153.312 223.675 142.912 218.561C132.512 213.448 124.582 206.255 119.122 196.981C113.662 187.708 111.365 176.875 112.232 164.481H151.232C151.665 169.768 153.052 174.231 155.392 177.871C157.732 181.425 160.982 184.111 165.142 185.931C169.302 187.665 174.242 188.531 179.962 188.531C186.635 188.531 192.139 187.361 196.472 185.021C200.892 182.595 204.185 179.128 206.352 174.621C208.519 170.028 209.602 164.481 209.602 157.981C209.602 147.755 207.045 140.605 201.932 136.531C196.819 132.371 190.232 130.291 182.172 130.291C173.592 130.291 167.005 131.938 162.412 135.231C157.905 138.438 154.092 141.645 150.972 144.851L115.742 134.191L127.962 34.4812H239.762V71.7912H160.332L148.372 127.561C151.665 118.635 156.952 111.571 164.232 106.371C171.599 101.085 182.259 98.4412 196.212 98.4412C202.885 98.4412 209.472 99.4378 215.972 101.431C222.559 103.425 228.539 106.675 233.912 111.181C239.285 115.688 243.575 121.668 246.782 129.121C249.989 136.575 251.592 145.761 251.592 156.681C251.592 170.808 248.602 183.115 242.622 193.601C236.642 204.001 228.235 212.061 217.402 217.781C206.569 223.415 193.872 226.231 179.312 226.231Z" fill="#39A0FF"/>
<path d="M221.028 231.826C207.161 231.826 195.028 229.27 184.628 224.156C174.228 219.043 166.298 211.85 160.838 202.576C155.378 193.303 153.081 182.47 153.948 170.076H192.948C193.381 175.363 194.768 179.826 197.108 183.466C199.448 187.02 202.698 189.706 206.858 191.526C211.018 193.26 215.958 194.126 221.678 194.126C228.351 194.126 233.855 192.956 238.188 190.616C242.608 188.19 245.901 184.723 248.068 180.216C250.235 175.623 251.318 170.076 251.318 163.576C251.318 153.35 248.761 146.2 243.648 142.126C238.535 137.966 231.948 135.886 223.888 135.886C215.308 135.886 208.721 137.533 204.128 140.826C199.621 144.033 195.808 147.24 192.688 150.446L157.458 139.786L169.678 40.0763H281.478V77.3864H202.048L190.088 133.156C193.381 124.23 198.668 117.166 205.948 111.966C213.315 106.68 223.975 104.036 237.928 104.036C244.601 104.036 251.188 105.033 257.688 107.026C264.275 109.02 270.255 112.27 275.628 116.776C281.001 121.283 285.291 127.263 288.498 134.716C291.705 142.17 293.308 151.356 293.308 162.276C293.308 176.403 290.318 188.71 284.338 199.196C278.358 209.596 269.951 217.656 259.118 223.376C248.285 229.01 235.588 231.826 221.028 231.826Z" fill="#FCFE06"/>
</svg>
