<svg width="364" height="355" viewBox="0 0 364 355" fill="none" xmlns="http://www.w3.org/2000/svg">
<path d="M138.052 280.313C119.652 280.313 103.552 276.921 89.7523 270.136C75.9523 263.351 65.4298 253.806 58.1848 241.501C50.9398 229.196 47.8923 214.821 49.0423 198.376H100.792C101.367 205.391 103.207 211.313 106.312 216.143C109.417 220.858 113.73 224.423 119.25 226.838C124.77 229.138 131.325 230.288 138.915 230.288C147.77 230.288 155.072 228.736 160.822 225.631C166.687 222.411 171.057 217.811 173.932 211.831C176.807 205.736 178.245 198.376 178.245 189.751C178.245 176.181 174.852 166.693 168.067 161.288C161.282 155.768 152.542 153.008 141.847 153.008C130.462 153.008 121.722 155.193 115.627 159.563C109.647 163.818 104.587 168.073 100.447 172.328L53.6998 158.183L69.9148 25.8758H218.265V75.3833H112.867L96.9973 149.386C101.367 137.541 108.382 128.168 118.042 121.268C127.817 114.253 141.962 110.746 160.477 110.746C169.332 110.746 178.072 112.068 186.697 114.713C195.437 117.358 203.372 121.671 210.502 127.651C217.632 133.631 223.325 141.566 227.58 151.456C231.835 161.346 233.962 173.536 233.962 188.026C233.962 206.771 229.995 223.101 222.06 237.016C214.125 250.816 202.97 261.511 188.595 269.101C174.22 276.576 157.372 280.313 138.052 280.313Z" fill="#FBABFD"/>
<path d="M178.191 291.991C159.791 291.991 143.691 288.598 129.891 281.813C116.091 275.028 105.568 265.483 98.3234 253.178C91.0784 240.873 88.0309 226.498 89.1809 210.053H140.931C141.506 217.068 143.346 222.991 146.451 227.821C149.556 232.536 153.868 236.101 159.388 238.516C164.908 240.816 171.463 241.966 179.053 241.966C187.908 241.966 195.211 240.413 200.961 237.308C206.826 234.088 211.196 229.488 214.071 223.508C216.946 217.413 218.383 210.053 218.383 201.428C218.383 187.858 214.991 178.371 208.206 172.966C201.421 167.446 192.681 164.686 181.986 164.686C170.601 164.686 161.861 166.871 155.766 171.241C149.786 175.496 144.726 179.751 140.586 184.006L93.8384 169.861L110.053 37.5534H258.403V87.0609H153.006L137.136 161.063C141.506 149.218 148.521 139.846 158.181 132.946C167.956 125.931 182.101 122.423 200.616 122.423C209.471 122.423 218.211 123.746 226.836 126.391C235.576 129.036 243.511 133.348 250.641 139.328C257.771 145.308 263.463 153.243 267.718 163.133C271.973 173.023 274.101 185.213 274.101 199.703C274.101 218.448 270.133 234.778 262.198 248.693C254.263 262.493 243.108 273.188 228.733 280.778C214.358 288.253 197.511 291.991 178.191 291.991Z" fill="#FDF6EC"/>
<path d="M218.33 303.669C199.93 303.669 183.83 300.276 170.03 293.491C156.23 286.706 145.707 277.161 138.462 264.856C131.217 252.551 128.17 238.176 129.32 221.731H181.07C181.645 228.746 183.485 234.669 186.59 239.499C189.695 244.214 194.007 247.779 199.527 250.194C205.047 252.494 211.602 253.644 219.192 253.644C228.047 253.644 235.35 252.091 241.1 248.986C246.965 245.766 251.335 241.166 254.21 235.186C257.085 229.091 258.522 221.731 258.522 213.106C258.522 199.536 255.13 190.049 248.345 184.644C241.56 179.124 232.82 176.364 222.125 176.364C210.74 176.364 202 178.549 195.905 182.919C189.925 187.174 184.865 191.429 180.725 195.684L133.977 181.539L150.192 49.231H298.542V98.7385H193.145L177.275 172.741C181.645 160.896 188.66 151.524 198.32 144.624C208.095 137.609 222.24 134.101 240.755 134.101C249.61 134.101 258.35 135.424 266.975 138.069C275.715 140.714 283.65 145.026 290.78 151.006C297.91 156.986 303.602 164.921 307.857 174.811C312.112 184.701 314.24 196.891 314.24 211.381C314.24 230.126 310.272 246.456 302.337 260.371C294.402 274.171 283.247 284.866 268.872 292.456C254.497 299.931 237.65 303.669 218.33 303.669Z" fill="#39A0FF"/>
<path d="M258.468 315.346C240.068 315.346 223.968 311.954 210.168 305.169C196.368 298.384 185.846 288.839 178.601 276.534C171.356 264.229 168.308 249.854 169.458 233.409H221.208C221.783 240.424 223.623 246.346 226.728 251.176C229.833 255.891 234.146 259.456 239.666 261.871C245.186 264.171 251.741 265.321 259.331 265.321C268.186 265.321 275.488 263.769 281.238 260.664C287.103 257.444 291.473 252.844 294.348 246.864C297.223 240.769 298.661 233.409 298.661 224.784C298.661 211.214 295.268 201.726 288.483 196.321C281.698 190.801 272.958 188.041 262.263 188.041C250.878 188.041 242.138 190.226 236.043 194.596C230.063 198.851 225.003 203.106 220.863 207.361L174.116 193.216L190.331 60.9087H338.681V110.416H233.283L217.413 184.419C221.783 172.574 228.798 163.201 238.458 156.301C248.233 149.286 262.378 145.779 280.893 145.779C289.748 145.779 298.488 147.101 307.113 149.746C315.853 152.391 323.788 156.704 330.918 162.684C338.048 168.664 343.741 176.599 347.996 186.489C352.251 196.379 354.378 208.569 354.378 223.059C354.378 241.804 350.411 258.134 342.476 272.049C334.541 285.849 323.386 296.544 309.011 304.134C294.636 311.609 277.788 315.346 258.468 315.346Z" fill="#FCFE06"/>
</svg>
