<svg width="30" height="50" fill="none" xmlns="http://www.w3.org/2000/svg"><path d="M25.83 45.7h3.468v-.528l-.122-.51-3.345 1.039zm-.207.06v-3.944h-.046l.046 3.944zm-19.763.296V50h.045l-.045-3.944zm-2.34 0-2.452 2.789L2.083 50h1.436v-3.944zm-.053-.178-3.454-.346-.013.173v.173h3.467zm.104-3.964H.104v.06l.002.06 3.465-.12zm.104-3.786 3.46.254v-.008l-3.46-.246zm.416-3.61-3.376-.895-.01.048-.009.049 3.395.799zm1.196-3.312-2.59-2.62-.203.258-.16.294 2.953 2.068zm2.6-2.722 2.047 3.185.009-.008.009-.008-2.064-3.169zm2.81-2.189-1.8-3.371-.024.016-.024.017 1.847 3.338zm2.86-1.952-1.72-3.425-.024.015-.024.016 1.768 3.394zm2.808-2.19-1.89-3.306-.15.11-.138.128 2.178 3.069zm1.456-2.13-3.228-1.437-.024.07-.022.072 3.274 1.296zm-.468-5.087-2.81 2.309.064.101.07.097 2.676-2.507zm-1.872-1.243.449-3.911-.224-.033h-.225v3.944zm-2.028.71-2.166-3.08-.046.042-.045.043 2.257 2.995zm-1.144 1.834-3.196-1.53-.019.05-.017.05 3.232 1.43zm-.52 2.308-3.433-.558-.011.091-.008.093 3.452.374zm-.156 2.307-3.462-.219-.006.11v.109h3.468zm0 .118v3.945H15.1V20.97h-3.467zm-.052 0v-3.944h-.193l-.19.024.383 3.92zm-4.161.414-.198-3.937h-.006l.204 3.937zm-3.537-.118.405-3.917-.201-.027h-.204v3.944zm-.052 0H.364v3.944h3.467v-3.944zm0-.118h3.467v-.34l-.05-.336-3.417.676zm0-7.632-3.39-.822-.005.024-.005.024 3.4.774zm2.6-6.035 2.575 2.643.09-.116.084-.122L6.432 7.48zM17.77 4.109l-.43 3.913.047.007.047.005.336-3.925zm3.537.887 1.578-3.512-.132-.077-.138-.064-1.308 3.653zm5.097 9.88 3.463-.187-.004-.088-.007-.088-3.452.363zm.104 2.722-3.465.158v.006l3.465-.164zm0 2.603 3.456.319.004-.06.003-.062-3.463-.197zm-.988 3.727-2.953-2.067-.01.02-.01.018 2.973 2.03zm-1.977 2.604-2.208-3.041-.03.027-.028.029 2.266 2.985zm-2.6 1.952-1.55-3.528-.023.013-.023.014 1.596 3.501zm-2.86 1.657-1.551-3.528-.023.013-.023.013 1.596 3.502zm-2.757 1.775 1.784 3.382.017-.012.016-.011-1.817-3.36zm-2.236 2.189-2.684-2.498-.337.47-.199.563 3.22 1.465zm-.312.828L9.608 33.33l-.068.174-.053.18 3.29 1.248zm-.312 1.065-3.29-1.247-.056.193-.039.198 3.385.856zm-.156 1.006-3.44-.49-.028.244v.246h3.468zm.208.532-1.551 3.528.684.389.763.026.104-3.943zm6.449 0-.12-3.942h-.002l.122 3.942zm6.397-.118 3.219-1.465-.872-2.48h-2.347v3.945zm.364 5.68-3.465-.158-.003.079v.079h3.468zm-.052 1.301-3.453-.357-.015.178v.18h3.468zm-3.312 1.302c0-1.54.752-2.599 1.374-3.13a3.189 3.189 0 0 1 1.2-.652c.39-.111.684-.103.686-.103v7.888a3.388 3.388 0 0 0 2.275-.822c.64-.546 1.4-1.622 1.4-3.181h-6.934zm3.214-3.885-19.763.296L5.905 50l19.763-.296-.091-7.888zm-19.717.295H3.52V50h2.34v-7.889zm.11 1.156c.846.96.964 2.082.964 2.611H0c0 .687.153 1.927 1.068 2.967l4.903-5.578zm.951 2.958a42.6 42.6 0 0 0 .116-4.43l-6.931.239c.03 1.14 0 2.306-.093 3.498l6.908.693zm.117-4.31c0-1.223.033-2.4.097-3.533l-6.92-.508a71.384 71.384 0 0 0-.111 4.04h6.934zm.098-3.541c.06-1.092.178-2.109.35-3.056L.697 33.72a33.54 33.54 0 0 0-.481 4.162l6.92.492zm.332-2.959a7.72 7.72 0 0 1 .772-2.142l-5.905-4.135a16.244 16.244 0 0 0-1.62 4.485l6.753 1.792zm.41-1.589c.689-.88 1.376-1.592 2.056-2.157l-4.092-6.37c-1.123.934-2.17 2.037-3.146 3.286l5.183 5.241zm2.074-2.172a41.843 41.843 0 0 1 2.592-2.021l-3.695-6.676a48.712 48.712 0 0 0-3.025 2.358l4.128 6.338zm2.544-1.988c.96-.663 1.903-1.306 2.828-1.93l-3.535-6.787a310.35 310.35 0 0 0-2.892 1.975l3.599 6.742zm2.781-1.899a24.852 24.852 0 0 0 3.267-2.545l-4.357-6.137c-.763.7-1.546 1.31-2.35 1.833l3.44 6.85zm2.978-2.306c1.353-1 2.317-2.426 2.841-4.141l-6.55-2.592a.584.584 0 0 1-.027.074l-.007.013-.002.002a.275.275 0 0 1-.034.03l3.779 6.614zm2.795-4c.493-1.432.708-2.947.59-4.5l-6.909.683c.02.26-.007.56-.138.942l6.457 2.875zm.59-4.5c-.127-1.662-.657-3.216-1.61-4.533l-5.353 5.015c.02.029.026.043.03.052.003.01.017.053.024.149l6.909-.683zm-1.476-4.335c-1.038-1.635-2.537-2.592-4.235-2.844l-.896 7.822a.654.654 0 0 1-.233-.105.908.908 0 0 1-.257-.254l5.621-4.619zM15.481 9.75c-1.418 0-2.919.413-4.194 1.574l4.332 6.16a.887.887 0 0 1-.143.106.594.594 0 0 1-.107.051c-.044.016-.018-.003.112-.003V9.75zm-4.285 1.66c-.94.916-1.622 2.051-2.083 3.298l6.391 3.06c.094-.252.175-.34.205-.37l-4.513-5.989zm-2.119 3.399a15.965 15.965 0 0 0-.72 3.179l6.864 1.115c.07-.558.181-1.032.319-1.435l-6.463-2.86zm-.74 3.363a71.33 71.33 0 0 0-.166 2.462l6.923.438c.032-.65.08-1.367.146-2.152l-6.903-.748zm-.172 2.681v.118H15.1v-.118H8.165zm3.468-3.826h-.052v7.889h.052v-7.889zm-.435.024a66.61 66.61 0 0 1-3.976.397l.396 7.875c1.29-.084 2.74-.229 4.345-.432l-.765-7.84zm-3.982.397a14.64 14.64 0 0 1-2.928-.098l-.81 7.834c1.38.185 2.762.231 4.145.139l-.407-7.875zm-3.333-.125h-.052v7.888h.052v-7.888zm3.415 3.944v-.118H.364v.118h6.934zm-.05-.794c-.354-2.31-.338-4.358-.017-6.183l-6.8-1.547c-.51 2.908-.495 5.949-.016 9.082l6.832-1.352zm-.026-6.134c.34-1.818.96-3.176 1.784-4.214L3.858 4.838C2.116 7.034 1 9.7.44 12.694l6.782 1.644zM9.18 9.886c.227-.336.638-.736 1.443-1.083L8.17 1.425c-1.76.758-3.326 1.936-4.486 3.651l5.497 4.81zm1.443-1.083c.976-.42 2.041-.7 3.21-.827L13.176.123A17.315 17.315 0 0 0 8.17 1.425l2.454 7.378zm3.21-.827a14.052 14.052 0 0 1 3.506.046L18.2.195a20.15 20.15 0 0 0-5.023-.072l.657 7.853zm3.6.058c1.213.135 2.038.37 2.565.615l2.616-7.306C21.27.72 19.735.363 18.106.183l-.673 7.851zm2.295.474c.923.537 1.605 1.297 2.107 2.367l6.119-3.712c-1.163-2.48-2.873-4.401-5.07-5.679l-3.156 7.024zm2.107 2.367c.602 1.284.982 2.724 1.115 4.365l6.905-.727c-.213-2.619-.839-5.083-1.901-7.35l-6.119 3.712zm1.104 4.19c.035.816.069 1.713.103 2.69l6.93-.315c-.036-.994-.07-1.911-.106-2.751l-6.927.375zm.104 2.697c.03.85.03 1.595 0 2.242l6.927.394c.04-.93.04-1.92 0-2.964l-6.927.328zm.008 2.12c-.07.972-.272 1.586-.485 1.98l5.905 4.134c.897-1.658 1.353-3.53 1.492-5.476l-6.912-.638zm-.505 2.017a6.005 6.005 0 0 1-1.212 1.592l4.416 6.082a13.698 13.698 0 0 0 2.742-3.615l-5.947-4.059zm-1.27 1.648a9.065 9.065 0 0 1-1.885 1.41l3.102 7.055a15.992 15.992 0 0 0 3.316-2.495l-4.533-5.97zm-1.93 1.436c-.92.543-1.86 1.086-2.815 1.63l3.101 7.056c.986-.561 1.954-1.122 2.906-1.683l-3.192-7.003zm-2.86 1.656a45.4 45.4 0 0 0-2.978 1.918l3.634 6.718c.83-.581 1.675-1.125 2.535-1.633l-3.192-7.003zm-2.945 1.894c-1.2.82-2.252 1.846-3.136 3.074l5.367 4.995c.365-.507.804-.94 1.337-1.304l-3.568-6.765zM9.87 32.64c-.045.128-.128.35-.26.691l6.336 3.204c.145-.37.27-.7.363-.965l-6.439-2.93zm-.382 1.046-.312 1.065 6.579 2.494.312-1.065-6.579-2.494zm-.407 1.456c-.09.46-.162.918-.212 1.372l6.881.979a7.81 7.81 0 0 1 .1-.64l-6.769-1.71zm-.239 1.862c0 .844.228 2.98 2.125 4.06l3.101-7.056c.724.412 1.205 1.077 1.462 1.734.227.581.247 1.064.247 1.262H8.84zm3.572 4.475c2.386.08 4.611.081 6.674-.001l-.243-7.884c-1.89.076-3.963.076-6.224 0l-.207 7.885zm6.672-.001a160.64 160.64 0 0 1 6.278-.116v-7.888c-2.29 0-4.462.04-6.517.12l.24 7.884zm3.058-2.595c.084.237.168.631.168 1.256h6.935c0-1.426-.193-2.846-.664-4.186l-6.439 2.93zm.168 1.256c0 .934-.016 1.867-.049 2.8l6.93.316c.036-1.038.054-2.077.054-3.116h-6.934zm-.052 2.959c0 .314-.012.629-.037.944l6.906.714c.044-.552.066-1.105.066-1.658h-6.935zm-.052 1.301c0 .797.096 1.58.279 2.34l6.69-2.076a1.115 1.115 0 0 1-.034-.264h-6.935z" fill="#9974F8"/><path d="M25.83 45.7c0 .04-.069.06-.207.06l-19.763.296H3.52c-.035-.04-.053-.099-.053-.178.104-1.34.139-2.662.104-3.964 0-1.301.035-2.564.104-3.786.07-1.262.208-2.465.416-3.61a11.98 11.98 0 0 1 1.197-3.312c.832-1.065 1.699-1.973 2.6-2.722a45.267 45.267 0 0 1 2.808-2.189c.971-.67 1.925-1.321 2.86-1.952.972-.631 1.908-1.361 2.81-2.19.693-.512 1.178-1.222 1.456-2.13a6.717 6.717 0 0 0 .364-2.72c-.07-.908-.347-1.697-.833-2.368-.45-.71-1.074-1.124-1.872-1.242-.832 0-1.508.237-2.028.71-.486.473-.867 1.085-1.144 1.834-.243.71-.416 1.48-.52 2.308-.07.828-.122 1.597-.156 2.307v.118h-.052a69.54 69.54 0 0 1-4.161.414c-1.179.08-2.358.04-3.537-.118h-.052v-.118c-.416-2.722-.416-5.266 0-7.632.451-2.406 1.318-4.418 2.6-6.035.694-1.026 1.682-1.814 2.965-2.367a14.197 14.197 0 0 1 4.109-1.065 17.102 17.102 0 0 1 4.264.06c1.422.157 2.6.453 3.537.887 1.56.907 2.756 2.248 3.589 4.023.832 1.775 1.335 3.727 1.508 5.857.035.829.07 1.736.104 2.722.034.947.034 1.814 0 2.603-.104 1.46-.434 2.702-.988 3.727a9.849 9.849 0 0 1-1.977 2.604c-.762.75-1.63 1.4-2.6 1.952a210.49 210.49 0 0 1-2.86 1.657 42.132 42.132 0 0 0-2.757 1.775 8.961 8.961 0 0 0-2.236 2.189c-.07.197-.174.473-.312.828l-.312 1.065c-.07.355-.122.69-.156 1.006 0 .276.069.453.208.532a87.74 87.74 0 0 0 6.449 0c2.01-.079 4.143-.118 6.397-.118.277.789.416 1.696.416 2.721 0 .986-.018 1.972-.052 2.958 0 .434-.018.868-.052 1.302 0 .434.052.868.156 1.302z" fill="#16120F"/></svg>