<svg width="30" height="50" fill="none" xmlns="http://www.w3.org/2000/svg"><path d="M26.578 44.47c0 .77.026 1.516.077 2.242 0 .256-.154.47-.463.64a5.825 5.825 0 0 1-1.158.32c-.463.086-.977.15-1.544.193h-1.543c-1.287 0-2.625-.043-4.014-.128a285.178 285.178 0 0 0-3.55-.32V41.14c0-4.142.154-8.24.463-12.297.308-4.056.463-8.156.463-12.297v-.577c0-.17-.026-.363-.078-.576-.257-.043-.488.128-.694.512-.206.342-.438.747-.695 1.217-.257.427-.54.833-.849 1.217-.309.384-.669.576-1.08.576-.258 0-.875-.085-1.853-.256a65.493 65.493 0 0 1-3.165-.64 50.38 50.38 0 0 1-3.01-.769c-.875-.256-1.312-.49-1.312-.704.051-.513.308-1.196.772-2.05a72.224 72.224 0 0 1 1.62-2.818A79.976 79.976 0 0 1 7.128 8.54c.772-1.068 1.492-2.05 2.161-2.947.669-.896 1.235-1.643 1.698-2.241.515-.64.823-1.004.926-1.089a96.34 96.34 0 0 1 3.474-.064 98.493 98.493 0 0 1 3.55-.064c1.338 0 2.676.021 4.014.064s2.702.107 4.091.192c.154 1.836.257 3.65.309 5.444.051 1.75.077 3.523.077 5.316 0 4.91-.154 9.757-.463 14.539a270.592 270.592 0 0 0-.386 14.539v2.242z" fill="#16120F"/><path d="M26.655 46.712h2.573v-.063l-.004-.062-2.569.125zm-.463.64 1.15 1.91.144-.06.133-.073-1.427-1.776zm-2.701.513V50h.116l.117-.009-.233-2.126zm-5.558-.128-.295 2.12.052.006.053.003.19-2.129zm-3.55-.32H11.81v1.932l2.316.192.257-2.124zm.849-32.024 2.523-.419-.337-1.396-1.682-.279-.504 2.094zm-.695.512 2.301.955.026-.043.024-.045-2.351-.867zm-.695 1.217 2.301.955.022-.036.02-.035-2.343-.884zm-11.27-.576L.01 16.368 0 16.457v.089h2.573zm2.394-4.868-2.263-1.017-.02.031-.019.031 2.302.955zm6.02-8.326-2.14-1.184-.012.014-.012.015 2.164 1.155zm.926-1.089L11.801.13l-1 .036-.708.587 1.82 1.51zm3.474-.064v2.135h.056l.056-.002-.112-2.133zm11.655.192 2.567-.148-.155-1.844L27.23.262l-.19 2.13zm.309 5.444-2.572.051v.001l2.572-.052zm-.386 19.855-2.57-.114v.019l2.57.095zm-2.959 16.78c0 .809.027 1.598.082 2.367l5.137-.25a30.023 30.023 0 0 1-.073-2.117h-5.146zm.077 2.242c0-.247.081-.51.251-.746.16-.22.343-.34.432-.39l2.854 3.553c.859-.475 1.61-1.296 1.61-2.417h-5.147zm.96-1.269a3.03 3.03 0 0 1-.566.146l1.117 4.168a8.716 8.716 0 0 0 1.75-.495l-2.302-3.819zm-.566.146c-.337.062-.741.114-1.218.15l.466 4.252c.654-.05 1.28-.125 1.869-.234l-1.117-4.168zm-.985.141H21.947V50H23.49v-4.27zm-1.544 0c-1.218 0-2.492-.04-3.824-.122l-.38 4.258c1.448.09 2.85.134 4.204.134v-4.27zm-3.719-.114a288.975 288.975 0 0 0-3.59-.324l-.511 4.25c1.012.083 2.183.189 3.511.316l.59-4.242zm-1.273 1.8v-.063H11.81v.064h5.145zm0-.063V41.14H11.81v6.213h5.145zm0-6.213c0-4.098.153-8.152.458-12.163l-5.135-.269a163.762 163.762 0 0 0-.468 12.432h5.145zm.458-12.163c.313-4.102.469-8.245.469-12.431h-5.146c0 4.097-.153 8.152-.458 12.162l5.135.27zm.469-12.431V16.257c0-.001 0 0 0 0V16.203s0 .001 0 0V16.183c0-.001 0 0 0 0v-.012c0-.001 0 0 0 0V16.13c0-.001 0 0 0 0v-.015c0-.001 0 0 0 0v-.017c0-.001 0 0 0 0v-.012s0 .001 0 0v-.002c0-.001 0 0 0 0V16.061c0-.001 0 0 0 0V16.037c0-.001 0 0 0 0v-.003c0-.001 0 0 0 0v-.005c0-.001 0 0 0 0V15.984c0-.001 0 0 0 0v-.007c0-.001 0 0 0 0v-.005c0-.001 0 0 0 0v-.003h-5.146c0-.001 0 0 0 0V16.006s0 .001 0 0V16.017s0 .001 0 0V16.047s0 .001 0 0v.003s0 .001 0 0v.019s0 .001 0 0v.005s0 .001 0 0V16.089s0 .001 0 0v.003s0 .001 0 0V16.11s0 .001 0 0v.012s0 .001 0 0v.003s0 .001 0 0v.012s0 .001 0 0V16.185s0 .001 0 0v.01s0 .001 0 0V16.27s0 .001 0 0V16.33s0 .001 0 0V16.547h5.146zm0-.576c0-.343-.051-.68-.128-.996l-5.045.838c.026.11.027.16.027.157l5.146.001zm-2.146-2.67a3.413 3.413 0 0 0-2.58.593c-.51.376-.802.83-.97 1.145l4.702 1.734c.037-.07-.035.107-.314.313-.157.116-.407.26-.756.352-.363.095-.74.107-1.091.05l1.01-4.188zm-3.5 1.65c-.224.372-.47.803-.736 1.289l4.684 1.767c.249-.454.466-.834.654-1.146l-4.602-1.91zm-.695 1.217c-.211.35-.441.68-.689.988l4.282 2.368c.37-.46.706-.943 1.01-1.446l-4.603-1.91zm-.689.988c-.014.017.055-.077.248-.18.217-.116.505-.195.813-.195v4.27c1.559 0 2.62-.78 3.22-1.527l-4.28-2.368zm1.06-.375c.083 0 .11.006.04 0a7.313 7.313 0 0 1-.273-.035 32.498 32.498 0 0 1-1.089-.175l-1.06 4.178c.884.155 1.798.302 2.383.302v-4.27zm-1.322-.21c-.92-.16-1.926-.364-3.018-.61l-1.354 4.118c1.173.266 2.277.49 3.312.67l1.06-4.178zm-3.018-.61a47.493 47.493 0 0 1-2.83-.723l-1.713 4.027a53.35 53.35 0 0 0 3.19.814l1.353-4.119zm-2.83-.723c-.37-.108-.477-.165-.443-.147.016.008.177.093.356.277a1.7 1.7 0 0 1 .49 1.179H0c0 .69.36 1.204.655 1.507.288.295.613.495.848.621.47.253 1.021.442 1.526.59l1.712-4.027zm.395 1.486c.015-.148.13-.567.554-1.35L.998 13.62c-.5.925-.901 1.872-.99 2.748l5.129.355zm.554-1.35a70.35 70.35 0 0 1 1.576-2.74l-4.603-1.91A74.095 74.095 0 0 0 .998 13.62l4.693 1.752zm1.537-2.678a77.791 77.791 0 0 1 2.105-3.057L4.921 7.441a82.026 82.026 0 0 0-2.218 3.22l4.525 2.034zm2.105-3.057c.767-1.06 1.481-2.034 2.143-2.92L7.1 4.47c-.677.906-1.403 1.897-2.18 2.971l4.412 2.197zm2.143-2.92c.664-.892 1.222-1.628 1.674-2.212L8.822 2.197A161.18 161.18 0 0 0 7.101 4.47l4.375 2.247zm1.651-2.182c.252-.314.444-.547.579-.706.068-.08.112-.13.137-.157.013-.014.013-.013.003-.004-.003.003-.045.046-.114.104L10.093.753c-.24.2-.477.481-.591.615-.174.204-.394.473-.657.8l4.282 2.368zm-1.103-.14a93.285 93.285 0 0 1 3.362-.062V.064A99.44 99.44 0 0 0 11.8.13l.223 4.266zm3.474-.064a95.367 95.367 0 0 1 3.438-.062V0c-1.22 0-2.441.022-3.662.066l.224 4.266zm3.438-.062c1.305 0 2.61.02 3.915.062L23.05.066C21.68.022 20.307 0 18.936 0v4.27zm3.915.062c1.307.042 2.64.105 4 .188l.38-4.258A142.096 142.096 0 0 0 23.05.066l-.198 4.266zm1.624-1.792c.151 1.804.252 3.586.303 5.346l5.144-.102a100.59 100.59 0 0 0-.314-5.541l-5.133.297zm.303 5.347c.05 1.733.076 3.488.076 5.264H30c0-1.81-.026-3.6-.078-5.368l-5.144.104zm.076 5.264c0 4.873-.153 9.681-.46 14.425l5.14.228A227.3 227.3 0 0 0 30 13.151h-5.146zm-.46 14.444c-.26 4.815-.389 9.693-.389 14.634h5.146c0-4.88.128-9.694.383-14.444l-5.14-.19zm-.389 14.634V44.47h5.146V42.229h-5.146z" fill="#9974F8"/></svg>