<svg width="30" height="50" fill="none" xmlns="http://www.w3.org/2000/svg"><path d="m3.856 32.867 3.43.727.06-.36v-.367h-3.49zm0-.119-.123-3.94-3.367.134v3.806h3.49zm7.433-.295h3.489v-4.085l-3.612.144.123 3.94zm0 .177h-3.49v1.633l1.022 1.155 2.468-2.788zm.052.118H7.85v.213l.02.211 3.47-.424zm3.297 3.431-.59-3.887-.075.015-.076.019.741 3.853zm2.67-1.952-2.983-2.046-.01.018-.01.018 3.003 2.01zm.052-7.157-3.1 1.812.022.047.023.046 3.055-1.905zm-2.355-2.247 1.002-3.777-.232-.08-.24-.04-.53 3.897zm-2.88-.178v3.943h.061l.06-.002-.12-3.94zm-2.983.118.12 3.941.06-.002.06-.005-.24-3.934zm-5.443.06.33-3.926-.164-.018h-.166v3.944zm-.157-10.41H.052v.049l.001.049 3.489-.098zm-.053-4.85H0v.047l.001.048 3.488-.096zm0-5.206V.414H0v3.943h3.49zM9.3 4.18 9.224.238h-.002l.077 3.942zm5.13-.118L14.363.119h-.001l.067 3.943zm5.182-.06v3.944h.038l.038-.001-.076-3.943zm6.229 0 2.467-2.788-.822-.93L26.333.1l-.493 3.903zm-.105 6.448-3.483-.246-.007.122v.123h3.49zm-.052 1.656-3.478-.328-.012.164v.164h3.49zm0 .65.493 3.904 2.996-.484v-3.42h-3.49zm-1.518.119-.159-3.94H24l.166 3.94zm-2.617.118v3.943h.06l.06-.002-.12-3.941zm-3.141.06-.109-3.942h-.003l.112 3.941zm-3.088.117v3.944h.062l.062-.003-.124-3.94zm-3.978 0V9.227H7.85v3.943h3.49zm0 .296H7.85v3.943h3.49v-3.943zm.052.06h-3.49v.485l.105.47 3.385-.956zm.314 2.01-2.903 2.188.191.325.245.276 2.467-2.789zm.105.119-2.468 2.788 1.023 1.155h1.445v-3.943zm.052 0v3.943h.34l.333-.074-.673-3.87zm5.496-.119-.63 3.879.056.011.056.01.518-3.9zm5.077 2.78-2.5 2.751.016.019.017.019 2.467-2.789zm4.03 12.126-3.487.127v.032l.002.031 3.486-.19zm-.261 7.157 3.41.837.03-.153.018-.154-3.458-.53zm-2.408 4.672 2.319 2.947.02-.02.02-.02-2.359-2.907zm-4.449 2.84-1.083-3.749-.01.004-.01.004 1.103 3.74zm-10.52-.119-1.322 3.65.013.006.012.005 1.296-3.66zm-3.822-3.194-2.746 2.433.014.02.015.02 2.717-2.473zm-1.465-5.5 3.489.07V36.297h-3.49zm3.803-3.431v-.119H.366v.119h6.98zM3.98 36.689l7.432-.296-.245-7.881-7.433.296.246 7.881zm3.82-4.236v.059h6.979v-.06H7.799zm0 .059V32.552s0 .001 0 0V32.617s0 .001 0 0V32.63h6.979V32.512H7.799zm1.022 2.906c-.345-.39-.97-1.294-.97-2.67h6.98a4.37 4.37 0 0 0-1.075-2.906L8.82 35.418zm-.95-2.246c.178 1.85.745 4.235 2.578 5.73l4.086-6.393c.141.115.24.235.306.331.032.047.053.086.067.112l.02.042s-.006-.013-.014-.04a1.85 1.85 0 0 1-.031-.127 4.469 4.469 0 0 1-.073-.502l-6.938.847zm2.578 5.73c1.485 1.212 3.225 1.55 4.93 1.13l-1.482-7.706s.026-.007.076-.008a.908.908 0 0 1 .563.191l-4.087 6.394zm4.779 1.164c2.082-.404 3.93-1.631 5.082-3.829l-6.004-4.02c-.01.02-.013.02-.004.009.01-.011.02-.02.024-.023.013-.01-.054.046-.277.09l1.179 7.773zm5.063-3.792a11.719 11.719 0 0 0 1.396-5.596h-6.979c0 .523-.113 1-.383 1.503l5.966 4.093zm1.396-5.596c0-1.952-.439-3.807-1.271-5.513l-6.111 3.81c.284.582.403 1.131.403 1.703h6.98zm-1.227-5.42c-.938-2.047-2.458-3.536-4.453-4.212l-2.005 7.553c.095.033.121.06.125.064.007.007.06.056.134.219l6.199-3.623zm-4.925-4.333a16.751 16.751 0 0 0-3.53-.22l.241 7.881a10.59 10.59 0 0 1 2.228.134l1.061-7.795zm-3.41-.223c-1.06 0-2.134.043-3.223.128l.48 7.867c.936-.073 1.85-.109 2.744-.109v-7.886zm-3.103.12c-1.015.04-1.995.08-2.94.12l.258 7.88c.94-.04 1.914-.078 2.923-.118l-.24-7.881zm-2.94.12c-.829.034-1.508.014-2.052-.045l-.662 7.851c.921.1 1.917.118 2.972.074l-.258-7.88zM3.7 20.878c.143 0 .77 0 1.482.402.405.229.919.635 1.323 1.32.42.711.58 1.482.58 2.162H.104c0 .7.166 1.489.593 2.214.413.7.94 1.119 1.363 1.358a3.309 3.309 0 0 0 1.639.43V20.88zm3.385 3.884V19.321H.104V24.764h6.98zm0-5.441c0-1.726-.018-3.396-.054-5.008l-6.977.197c.035 1.542.052 3.146.052 4.81h6.979zm-.053-4.91c0-1.648-.017-3.297-.053-4.946L0 9.658c.034 1.585.051 3.17.051 4.755h6.98zm-.052-4.85V4.357H0V9.563h6.979zM3.489 8.3h.053V.414h-.053V8.3zm.053 0c.178 0 .86-.023 1.892-.06L5.209.356 3.963.4l-.421.013V8.3zm1.892-.06c1.066-.04 2.38-.079 3.943-.118L9.222.238c-1.577.04-2.916.079-4.013.119l.225 7.882zm3.941-.118c1.602-.04 3.31-.079 5.121-.118L14.362.119c-1.817.04-3.53.079-5.138.119l.151 7.884zm5.12-.118c1.83-.039 3.536-.058 5.116-.058V.059c-1.63 0-3.38.02-5.248.06l.132 7.885zm5.192-.06c1.589-.038 2.94-.058 4.059-.058V0c-1.184 0-2.59.02-4.21.06l.15 7.885zm4.059-.058c.563 0 .992.005 1.3.014.154.004.262.01.332.014.09.005.06.007-.032-.008l.987-7.807C25.782.009 24.78 0 23.746 0v7.886zm-.374-1.095a3.895 3.895 0 0 1-.772-1.335 4.043 4.043 0 0 1-.15-.56c-.038-.204-.048-.347-.049-.36-.003-.044.002-.005.002.176h6.978c0-.253-.004-.548-.025-.83-.01-.13-.03-.367-.081-.64a4.656 4.656 0 0 0-.17-.645c-.073-.21-.291-.81-.798-1.383l-4.935 5.577zm-.97-2.079V6.31h6.98V4.712h-6.98zm0 1.597c0 .55-.015 1.17-.047 1.863l6.97.415c.037-.806.056-1.566.056-2.278h-6.979zm-.047 1.863c-.034.739-.069 1.416-.103 2.032l6.966.491c.035-.645.07-1.349.106-2.108l-6.97-.415zm-.11 2.277c0 .555-.015.994-.04 1.33l6.955.654c.045-.61.064-1.276.064-1.983h-6.979zm-.052 1.657V12.718s0 .001 0 0v.008s0 .001 0 0v.002s0 .001 0 0V12.756l3.49.001h3.49v-.002c0-.001 0 0 0 0V12.711c0-.001 0 0 0 0V12.105h-6.98zm2.996-3.253c.01-.002-.072.01-.31.029a34.43 34.43 0 0 1-.873.053l.317 7.879c.735-.038 1.413-.083 1.853-.154l-.987-7.807zM24 8.936c-.713.038-1.57.077-2.572.116l.24 7.882c1.023-.04 1.911-.08 2.664-.12l-.332-7.878zm-2.451.114c-1.018 0-2.102.02-3.25.06l.218 7.883a86.272 86.272 0 0 1 3.032-.057V9.05zm-3.253.06c-1.086.04-2.12.08-3.1.12l.248 7.881c.973-.04 1.998-.079 3.077-.118l-.226-7.882zm-2.976.117H12.754v7.887H15.32V9.227zm-2.565 0H11.394v7.887H12.754V9.227zm-1.36 0h-.053v7.887h.052V9.227zM7.85 13.17v.119h6.98v-.119H7.85zm0 .119v.059h6.98v-.06H7.85zm0 .059V13.373s0 .001 0 0V13.456s0 .001 0 0v.011h6.98V13.415c0-.001 0 0 0 0V13.401c0-.001 0 0 0 0V13.347H7.85zm3.49 4.061c-.52 0-1.552-.15-2.428-1.14-.877-.99-1.01-2.156-1.01-2.744h6.98c0-.627-.141-1.822-1.035-2.832-.894-1.01-1.952-1.17-2.507-1.17v7.886zm-3.333-2.927c-.007-.03-.006-.037-.004-.019.001.02.004.06.004.127h6.98a9.36 9.36 0 0 0-.21-2.021l-6.77 1.913zm0 .108c0 .882.153 2.043.796 3.134l5.807-4.375c.364.617.376 1.148.376 1.24H8.008zm1.232 3.735.052.059 4.935-5.577-.052-.059-4.935 5.577zm.052.059.052.059 4.935-5.577-.052-.059-4.935 5.577zm2.52 1.214h.052V11.71h-.052v7.887zm.725-.074c1.586-.352 2.972-.363 4.193-.11l1.26-7.756c-2.198-.456-4.476-.388-6.798.127l1.345 7.739zm4.306-.088c1.453.246 2.41.837 3.094 1.631l5-5.502c-1.897-2.202-4.325-3.465-7.06-3.928l-1.034 7.799zm3.127 1.669c.9 1.016 1.611 2.281 2.114 3.865l6.57-2.661c-.824-2.596-2.067-4.88-3.75-6.781l-4.934 5.577zm2.114 3.865c.528 1.666.837 3.523.896 5.599l6.975-.255c-.08-2.814-.504-5.491-1.302-8.005l-6.57 2.661zm.898 5.662a39.686 39.686 0 0 1-.234 6.437l6.916 1.06c.309-2.576.404-5.203.29-7.878l-6.972.381zm-.186 6.129a4.96 4.96 0 0 1-1.356 2.603l4.716 5.814c1.767-1.83 2.952-4.1 3.46-6.742l-6.82-1.675zm-1.316 2.563c-.873.877-1.928 1.563-3.214 2.038l2.166 7.497a15.52 15.52 0 0 0 5.685-3.64l-4.637-5.895zm-3.234 2.046c-1.296.488-2.701.744-4.236.744V50c2.234 0 4.389-.375 6.443-1.149l-2.207-7.481zm-4.236.744c-1.49 0-2.772-.28-3.886-.783l-2.592 7.322C9.56 49.57 11.732 50 14.01 50v-7.886zm-3.86-.771a6 6 0 0 1-2.425-2.019L2.29 44.272c1.393 1.954 3.152 3.415 5.217 4.37l2.643-7.3zm-2.396-1.977c-.427-.616-.747-1.515-.723-2.998l-6.978-.141C.007 39.16.664 41.928 2.26 44.23l5.493-4.865zm-.723-3.069c0-.73.076-1.624.255-2.703L.426 32.14c-.24 1.444-.374 2.836-.374 4.157h6.98z" fill="#9A73F8"/><path d="M3.856 32.867v-.119l7.432-.295v.177a.18.18 0 0 1 .053.118c.14 1.46.523 2.445 1.151 2.958.628.512 1.344.67 2.146.473 1.222-.237 2.111-.887 2.67-1.952a7.385 7.385 0 0 0 .89-3.549 8.12 8.12 0 0 0-.838-3.608c-.523-1.143-1.309-1.893-2.355-2.247a13.672 13.672 0 0 0-2.88-.178c-.976 0-1.97.04-2.983.118-1.012.04-1.989.08-2.93.119-.943.04-1.78.02-2.513-.06-.07 0-.105-.02-.105-.059v-5.441c0-1.696-.018-3.332-.052-4.91 0-1.616-.018-3.233-.053-4.85V4.357h.053c.104 0 .697-.02 1.78-.059 1.081-.04 2.407-.079 3.977-.118 1.605-.04 3.315-.079 5.13-.118 1.85-.04 3.577-.06 5.182-.06 1.605-.039 2.983-.059 4.135-.059 1.151 0 1.85.02 2.093.06.035.039.053.275.053.71v1.596c0 .631-.018 1.321-.053 2.07-.034.75-.07 1.44-.104 2.07 0 .632-.018 1.184-.053 1.657v.65c-.244.04-.75.08-1.518.119-.732.04-1.605.079-2.617.118-.977 0-2.024.02-3.14.06-1.082.038-2.111.078-3.088.117H11.34v.296c.035 0 .052.02.052.06.07.315.105.67.105 1.064s.07.71.209.946l.052.06.053.059h.052c1.954-.434 3.786-.474 5.496-.119 2.094.355 3.786 1.282 5.077 2.78 1.291 1.46 2.268 3.234 2.931 5.324.663 2.09 1.03 4.357 1.1 6.802.104 2.444.017 4.83-.262 7.157-.35 1.814-1.152 3.371-2.408 4.672a12.112 12.112 0 0 1-4.449 2.84c-1.675.63-3.455.946-5.339.946-1.884 0-3.612-.355-5.182-1.065-1.535-.71-2.809-1.774-3.82-3.194-1.013-1.459-1.501-3.293-1.466-5.5 0-1.026.104-2.17.314-3.431z" fill="#16120F"/></svg>